<?xml version="1.0" ?><!DOCTYPE svg  PUBLIC '-//W3C//DTD SVG 1.1//EN'  'http://www.w3.org/Graphics/SVG/1.1/DTD/svg11.dtd'><svg enable-background="new 0 0 512 512" height="512px" id="Layer_1" version="1.1" viewBox="0 0 512 512" width="512px" xml:space="preserve" xmlns="http://www.w3.org/2000/svg" xmlns:xlink="http://www.w3.org/1999/xlink"><g><path d="M21.312,261.433c0-129.624,105.082-234.708,234.709-234.708c129.628,0,234.711,105.084,234.711,234.708    c0,129.63-105.083,234.715-234.711,234.715C126.393,496.147,21.312,391.063,21.312,261.433z" fill="#4A525F"/><path d="M78.905,261.433c0-97.716,79.216-176.935,176.936-176.935c97.718,0,176.935,79.219,176.935,176.935    c0,97.723-79.217,176.938-176.935,176.938C158.121,438.371,78.905,359.155,78.905,261.433z" fill="#D1D1D1"/><polygon fill="#F56F6C" points="280.446,237 231.185,237 255.816,108.075 255.816,108.075   "/><polygon fill="#FFFFFF" points="231.185,290 280.446,290 255.816,418.927 255.816,418.927   "/><path d="M216.865,262.104c-0.369-21.512,16.771-39.25,38.283-39.621c21.513-0.368,39.251,16.772,39.62,38.287    c0.369,21.508-16.772,39.248-38.284,39.614C234.972,300.753,217.232,283.614,216.865,262.104z" fill="#FFFFFF"/><path d="M256,26.508V496.36c129.672-0.086,234.768-105.23,234.768-234.929    C490.768,131.743,385.672,26.594,256,26.508z" fill="#FFFFFF" opacity="0.05"/></g></svg>